# xmcd
# 
# Track frame offsets:
#     150
#     4913
#     24075
#     41178
#     51060
#     69746
#     79363
#     95223
#     110268
#     125695
#     138958
# 
# Disc length: 2173
# 
# Revision: 7
# Processed by: cddbd v1.5.2PL0 Copyright (c) Steve Scherf et al.
# Submitted via: fre:ac v1.0.17
# 
DISCID=96087b0b
DTITLE=System Of A Down - Mezmerize
DYEAR=2005
DGENRE=Heavy Metal
TTITLE0=Soldier Side - Intro
TTITLE1=B.Y.O.B.
TTITLE2=Revenga
TTITLE3=Cigaro
TTITLE4=Radio/Video
TTITLE5=This Cocaine Makes Me Feel Like I'm On This Song
TTITLE6=Violent Pornography
TTITLE7=Question!
TTITLE8=Sad Statue
TTITLE9=Old School Hollywood
TTITLE10=Lost In Hollywood
EXTD=YEAR: 2005
EXTT0=
EXTT1=
EXTT2=
EXTT3=
EXTT4=
EXTT5=
EXTT6=
EXTT7=
EXTT8=
EXTT9=
EXTT10=
PLAYORDER=
